<?xml version="1.0" standalone="no"?>
<!DOCTYPE svg PUBLIC "-//W3C//DTD SVG 20010904//EN"
 "http://www.w3.org/TR/2001/REC-SVG-20010904/DTD/svg10.dtd">
<svg version="1.0" xmlns="http://www.w3.org/2000/svg"
 width="2816.000000pt" height="1536.000000pt" viewBox="0 0 2816.000000 1536.000000"
 preserveAspectRatio="xMidYMid meet">

<g transform="translate(0.000000,1536.000000) scale(0.100000,-0.100000)"
fill="#f59e0b" stroke="none">
<path d="M15369 11757 c-125 -47 -178 -133 -137 -221 14 -32 80 -65 147 -73
54 -6 65 -17 29 -29 -13 -4 -75 -31 -139 -60 -63 -30 -129 -57 -147 -60 -27
-5 -32 -3 -37 17 -3 14 1 41 10 61 20 48 19 107 -1 137 -20 28 -88 60 -130 61
-108 1 -234 -93 -234 -173 0 -69 70 -145 153 -168 20 -5 35 -14 32 -19 -9 -15
-225 -81 -282 -87 l-53 -6 20 58 c24 70 25 87 4 131 -30 63 -129 92 -215 62
-51 -17 -118 -66 -140 -101 -25 -43 -24 -97 3 -132 23 -30 90 -64 125 -65 47
0 30 -21 -50 -59 -98 -47 -131 -81 -186 -189 -53 -104 -183 -262 -217 -262
-13 0 -106 -31 -207 -69 -240 -91 -680 -261 -787 -304 -47 -19 -170 -67 -275
-107 -104 -40 -316 -122 -470 -182 -154 -60 -350 -137 -435 -170 -524 -204
-1636 -646 -2095 -833 -115 -47 -215 -85 -223 -85 -7 0 -38 53 -68 118 -185
392 -491 752 -760 894 -187 99 -341 138 -539 138 -189 0 -339 -36 -517 -126
-141 -71 -210 -123 -458 -349 -236 -215 -280 -251 -371 -306 -167 -100 -310
-134 -534 -126 -168 7 -287 25 -645 98 -393 80 -530 100 -750 106 -575 17
-1106 -142 -1525 -457 -391 -294 -640 -736 -725 -1285 -18 -112 -24 -475 -11
-608 61 -628 364 -1512 720 -2102 398 -659 874 -1060 1420 -1195 650 -161
1365 61 1959 609 176 162 350 376 507 623 225 352 264 411 332 500 163 213
296 314 511 392 135 48 250 66 507 76 509 21 591 32 717 96 79 40 163 127 205
212 38 75 38 77 38 197 -1 109 -3 126 -29 184 -36 84 -102 179 -218 317 -51
61 -110 140 -130 175 -119 200 -69 439 124 598 134 110 370 223 578 277 134
34 277 32 354 -5 155 -76 226 -256 286 -726 43 -334 105 -643 159 -786 82
-217 291 -227 395 -20 26 50 66 176 150 466 83 287 98 335 107 335 10 0 10 -1
95 -355 36 -154 77 -316 91 -360 46 -149 114 -217 219 -219 181 -2 261 214
418 1119 101 579 140 769 193 945 89 295 219 467 395 521 73 23 199 25 313 5
210 -36 296 -28 427 41 131 69 302 259 453 506 131 213 316 486 379 559 111
129 269 226 438 269 76 19 93 21 128 10 42 -12 83 -61 78 -91 -2 -9 -37 -27
-83 -44 -106 -38 -191 -40 -258 -7 -53 26 -77 18 -77 -25 0 -30 29 -49 109
-70 88 -22 167 -11 293 41 13 5 9 -9 -17 -60 -19 -36 -35 -77 -35 -90 0 -108
143 -155 274 -91 86 42 133 121 115 192 -11 41 -44 68 -107 89 -30 9 -51 22
-49 28 8 27 299 178 313 164 4 -3 -3 -37 -15 -76 -25 -82 -26 -112 -6 -151 44
-85 211 -82 299 6 40 40 59 90 51 131 -8 43 -70 106 -119 123 -56 18 -48 42
27 73 105 45 250 98 254 94 2 -2 -6 -26 -17 -53 -64 -148 -12 -245 124 -231
165 17 286 174 197 255 -15 15 -51 35 -80 45 -28 10 -51 22 -51 26 0 5 33 17
73 26 113 28 174 54 202 86 37 45 38 66 10 146 -30 87 -31 99 -5 188 26 91 25
119 -6 185 -14 30 -35 84 -46 120 -31 100 -53 135 -110 176 -82 58 -137 114
-164 166 -52 102 -103 104 -279 13 -69 -36 -125 -63 -125 -59 0 3 8 18 19 32
10 15 24 43 31 64 17 46 -1 100 -42 131 -35 26 -128 33 -179 14z m138 -78 c12
-12 6 -40 -26 -110 l-21 -47 -37 14 c-21 7 -52 13 -70 14 -57 0 -76 44 -39 89
31 39 166 67 193 40z m358 -136 c77 -120 94 -141 156 -182 73 -49 92 -74 116
-153 8 -29 28 -79 44 -110 35 -68 35 -84 8 -189 -22 -87 -21 -122 12 -218 11
-30 19 -55 19 -57 0 -5 -85 -33 -176 -58 -50 -14 -99 -28 -108 -32 -13 -5 -16
1 -16 32 0 56 -28 104 -75 128 -34 18 -57 21 -150 20 -98 -1 -131 -6 -310 -52
-245 -63 -454 -129 -734 -233 -252 -94 -330 -115 -374 -99 -36 12 -77 48 -77
66 0 22 61 64 174 121 61 31 167 86 236 123 69 37 249 130 400 206 318 160
440 229 504 286 80 70 112 161 82 232 -9 21 -16 44 -16 51 0 7 28 27 63 45 34
19 87 49 117 67 57 34 86 36 105 6z m-861 -44 c35 -16 37 -29 15 -79 -30 -66
-24 -103 25 -159 l21 -25 -35 23 c-19 12 -68 38 -107 57 -116 55 -139 95 -84
148 44 42 115 57 165 35z m516 -128 c40 -75 -19 -163 -166 -249 -94 -54 -279
-152 -288 -152 -4 0 3 14 15 32 30 41 38 141 16 184 l-15 28 97 37 c53 20 143
59 201 87 58 27 110 51 117 51 7 1 17 -8 23 -18z m-999 -61 c24 -13 24 -37 -1
-91 -11 -24 -20 -55 -20 -68 0 -15 -5 -21 -14 -18 -7 3 -45 15 -84 26 -39 12
-78 29 -87 37 -13 14 -13 18 1 45 28 55 152 97 205 69z m499 -145 c8 -10 11
-33 8 -66 -4 -41 -12 -57 -42 -88 -49 -50 -217 -141 -281 -152 -27 -4 -81 -13
-120 -20 -71 -12 -202 -57 -353 -123 -46 -20 -88 -36 -93 -36 -6 0 1 15 15 33
13 17 39 63 57 100 17 37 45 79 62 93 26 22 217 124 232 124 12 0 36 -115 31
-146 -8 -40 11 -47 44 -14 38 38 19 138 -34 176 l-26 19 72 1 c85 1 244 41
333 84 71 34 79 35 95 15z m-300 -359 c0 -9 -185 -110 -326 -178 -228 -109
-282 -157 -271 -238 11 -84 87 -140 189 -140 84 0 439 63 647 114 193 48 269
56 326 32 35 -15 63 -53 48 -65 -4 -4 -37 -20 -73 -35 -84 -35 -282 -143 -309
-167 -26 -24 -31 -24 -31 2 0 84 -120 160 -228 144 -121 -18 -304 -98 -423
-185 -104 -76 -248 -263 -409 -530 -244 -406 -450 -637 -601 -673 -22 -6 -27
-2 -42 32 -61 137 -167 207 -352 232 -154 20 -327 -13 -477 -93 -79 -41 -220
-175 -286 -271 -101 -147 -159 -285 -228 -537 -58 -217 -84 -348 -134 -680
-67 -443 -119 -739 -126 -715 -2 6 -23 102 -48 215 -108 486 -154 601 -261
651 -102 47 -196 -2 -264 -140 -37 -76 -59 -139 -131 -386 -34 -115 -71 -240
-82 -277 -11 -38 -22 -68 -24 -68 -16 0 -42 178 -84 575 -36 339 -49 409 -85
464 -45 68 -128 120 -223 140 -75 16 -269 14 -387 -4 -120 -18 -327 -72 -450
-116 -113 -41 -299 -136 -379 -193 -235 -168 -328 -415 -243 -649 35 -97 78
-161 210 -320 80 -97 131 -169 160 -226 41 -82 42 -88 42 -180 0 -89 -3 -102
-33 -163 -36 -74 -114 -153 -184 -187 -103 -49 -238 -67 -578 -76 -260 -7
-373 -19 -505 -50 -361 -85 -526 -224 -830 -693 -308 -474 -389 -584 -585
-786 -353 -364 -745 -588 -1210 -692 -116 -26 -141 -28 -350 -28 -252 0 -326
11 -530 80 -509 173 -965 613 -1335 1288 -152 276 -258 527 -383 901 -168 503
-242 885 -242 1247 0 904 466 1583 1287 1877 244 87 474 129 758 137 251 8
408 -9 785 -86 501 -102 679 -126 870 -117 155 7 253 32 385 96 124 60 223
133 389 287 269 249 428 371 560 429 163 72 371 106 530 86 277 -35 469 -132
682 -345 160 -160 298 -357 436 -622 l68 -131 -173 -71 c-94 -39 -280 -117
-412 -172 -381 -161 -426 -178 -495 -189 -96 -16 -169 0 -324 69 -201 89 -230
95 -436 95 -210 -1 -252 -10 -425 -95 -263 -129 -436 -341 -517 -638 -18 -64
-21 -106 -22 -247 0 -157 2 -177 27 -259 43 -138 119 -281 199 -372 17 -19 28
-37 25 -40 -2 -3 -45 -13 -93 -23 -231 -48 -444 -173 -535 -314 -199 -308 -40
-861 293 -1021 245 -116 537 -49 968 224 121 76 137 88 290 210 394 313 635
666 657 966 6 78 -6 131 -37 159 -33 30 -64 12 -129 -74 -156 -205 -372 -333
-615 -363 -163 -20 -364 28 -518 124 l-63 39 300 -2 c280 -2 305 -1 378 19
259 71 454 272 522 539 70 275 6 532 -180 719 -68 67 -98 89 -186 132 -141 70
-212 85 -364 79 -95 -3 -137 -10 -200 -31 -326 -110 -526 -411 -502 -755 12
-161 61 -287 168 -433 51 -69 70 -82 99 -73 42 13 33 48 -31 125 -164 197
-199 499 -85 730 163 332 557 457 891 282 107 -56 212 -165 263 -272 99 -209
96 -404 -9 -619 -31 -63 -62 -105 -121 -166 -90 -94 -167 -141 -293 -176 -89
-25 -134 -27 -519 -20 -264 5 -246 -1 -338 120 -354 467 -187 1130 346 1376
130 61 215 79 356 78 153 -1 227 -19 401 -98 135 -61 216 -85 294 -85 102 0
156 19 660 231 77 32 217 90 310 130 94 39 177 73 186 76 42 13 59 -197 23
-277 -59 -128 -163 -207 -489 -372 -313 -158 -396 -206 -453 -261 -50 -49 -72
-85 -72 -122 0 -39 18 -65 56 -81 64 -27 165 5 494 153 527 237 1082 485 1305
583 116 51 320 142 455 202 135 60 421 188 635 283 215 95 467 208 560 250 94
42 235 105 315 140 383 166 1091 486 1456 658 359 168 424 218 424 322 0 30
-13 94 -31 151 -16 55 -33 119 -36 144 -4 40 -2 48 22 70 14 14 39 25 53 26
15 1 108 34 207 74 136 55 357 136 433 159 1 1 2 -1 2 -3z m1073 -162 c15 -3
32 -14 37 -24 11 -20 17 -97 9 -105 -3 -2 -45 -16 -95 -30 -49 -15 -143 -49
-209 -77 -68 -28 -121 -45 -123 -39 -11 34 -53 79 -92 99 -76 38 -178 27 -455
-49 -60 -17 -119 -33 -130 -36 -13 -3 -17 -2 -10 5 18 19 308 111 555 176 349
93 401 101 513 80z m-1883 -191 c7 -21 27 -79 46 -130 19 -51 34 -110 34 -132
0 -34 -6 -44 -41 -75 -46 -39 -232 -133 -554 -279 -728 -330 -673 -306 -1415
-634 -267 -118 -611 -271 -765 -340 -154 -69 -381 -170 -505 -225 -124 -55
-304 -135 -400 -178 -96 -43 -211 -94 -255 -113 -102 -44 -516 -230 -750 -337
-196 -90 -514 -229 -665 -292 -105 -43 -190 -60 -190 -37 0 7 24 36 54 65 44
41 111 79 353 202 164 84 327 171 363 194 94 60 191 163 229 239 46 95 50 173
15 339 -4 22 1 27 38 43 246 104 1508 605 2218 880 135 52 290 113 345 135 55
22 345 135 645 251 300 116 687 267 860 335 173 68 318 124 322 125 3 1 12
-16 18 -36z m2018 -27 c15 -26 33 -38 73 -51 30 -10 58 -21 63 -25 33 -31 -62
-119 -138 -127 -49 -6 -81 16 -73 51 6 29 52 186 54 186 0 0 10 -15 21 -34z
m-483 -189 c16 -34 31 -47 78 -69 68 -33 73 -54 24 -103 -42 -42 -106 -61
-145 -43 -22 11 -27 20 -26 48 1 19 9 53 17 75 9 22 16 64 17 94 0 60 5 60 35
-2z m-504 -217 c10 -28 25 -36 137 -75 6 -2 12 -18 12 -35 0 -76 -142 -140
-208 -94 -27 19 -28 40 -2 79 34 49 47 89 42 123 -5 40 6 42 19 2z m-1981
-966 c52 -15 110 -50 138 -84 14 -17 52 -86 52 -95 0 -9 -80 -5 -203 11 -353
47 -538 -40 -681 -316 -99 -192 -159 -419 -250 -945 -166 -958 -229 -1210
-325 -1299 -38 -36 -87 -40 -128 -10 -55 40 -78 110 -197 601 -29 122 -64 244
-77 270 -22 43 -28 48 -62 51 -70 6 -69 6 -183 -383 -135 -463 -156 -516 -217
-554 -73 -45 -134 -15 -181 88 -48 106 -116 443 -160 786 -41 315 -73 449
-143 590 -39 80 -79 125 -143 163 l-45 27 93 3 c142 4 244 -28 308 -97 41 -44
53 -108 84 -436 23 -244 64 -549 80 -591 31 -82 85 -107 128 -61 25 27 35 51
77 197 58 203 135 453 157 510 72 190 188 236 260 103 33 -61 64 -166 117
-403 86 -380 92 -399 132 -421 29 -15 64 2 84 41 25 48 60 222 104 515 60 395
60 396 93 565 99 516 200 770 385 971 103 112 261 196 408 219 80 12 227 4
295 -16z m-4689 -2247 c-47 -188 -191 -407 -407 -617 -154 -150 -265 -238
-479 -378 -265 -175 -465 -257 -650 -269 -223 -14 -372 83 -489 319 -65 132
-86 214 -86 348 0 210 72 337 251 443 120 70 312 133 425 138 56 3 62 1 119
-42 191 -145 432 -214 651 -188 99 12 250 57 334 99 108 55 254 176 311 259
l34 49 3 -39 c2 -22 -6 -77 -17 -122z"/>
<path d="M5145 7863 c-43 -9 -153 -47 -223 -75 -74 -31 -102 -60 -102 -107 0
-12 18 -68 40 -126 56 -148 63 -183 59 -325 -10 -336 -1 -436 53 -600 84 -255
180 -406 393 -615 84 -82 165 -169 179 -191 15 -23 46 -88 69 -145 46 -113 80
-149 141 -149 70 0 233 106 268 173 10 21 22 69 25 106 5 59 1 81 -27 167 -50
150 -679 1713 -731 1816 -33 65 -76 86 -144 71z m75 -100 c44 -95 682 -1681
719 -1789 47 -137 40 -215 -25 -276 -32 -29 -138 -88 -159 -88 -21 0 -52 46
-71 103 -41 125 -70 166 -241 336 -209 209 -273 299 -356 501 -81 196 -103
346 -87 585 14 208 6 267 -55 420 -25 61 -45 116 -45 123 0 16 58 44 155 75
138 44 148 45 165 10z"/>
<path d="M19744 10196 c-63 -28 -64 -29 -188 -446 -30 -102 -91 -306 -135
-455 -44 -148 -99 -337 -121 -420 -48 -174 -80 -261 -122 -328 l-30 -47 -57
52 c-177 164 -433 204 -781 122 -135 -32 -184 -56 -218 -107 l-27 -41 3 -290
c3 -266 -12 -1080 -23 -1236 -2 -36 -7 -288 -11 -560 -9 -633 0 -711 86 -784
79 -66 178 -36 226 68 40 88 44 154 45 761 1 319 4 621 8 670 l6 90 54 -105
c98 -191 302 -554 368 -653 90 -136 180 -224 277 -272 73 -36 83 -39 170 -39
115 0 165 22 252 109 100 99 157 239 209 515 8 46 19 88 23 92 7 7 167 23 324
32 65 4 91 2 101 -8 7 -8 19 -58 26 -112 30 -224 71 -447 91 -492 39 -87 100
-132 180 -132 108 0 182 108 165 239 -9 62 -110 691 -196 1211 -103 622 -157
847 -230 961 -116 182 -314 118 -423 -136 -42 -99 -133 -411 -176 -605 -17
-80 -53 -244 -80 -365 -27 -121 -65 -305 -85 -410 -19 -104 -43 -228 -52 -275
-21 -113 -57 -217 -84 -246 -56 -60 -118 -18 -234 156 -112 170 -295 504 -345
629 -20 52 -20 54 -3 74 10 11 36 31 58 45 166 105 285 228 360 373 89 172
109 344 60 513 l-25 86 39 58 c50 74 63 101 95 197 l26 81 39 -4 c47 -5 104
20 130 57 10 14 51 134 91 266 40 132 120 395 177 585 58 190 110 364 115 386
22 98 -70 180 -158 140z m74 -102 c2 -17 -26 -127 -63 -250 -104 -343 -179
-595 -231 -769 -52 -178 -66 -212 -98 -237 -28 -24 -59 -24 -52 0 3 9 19 69
36 132 30 108 119 411 267 900 35 118 71 225 79 238 22 34 58 26 62 -14z
m-1088 -1464 c41 -6 103 -19 138 -31 69 -23 167 -90 202 -138 l22 -32 -26 -32
c-14 -18 -50 -65 -79 -104 -49 -68 -81 -98 -57 -53 14 27 -4 88 -40 132 -59
72 -207 115 -356 106 -127 -8 -185 -57 -201 -166 -4 -31 -8 -204 -8 -384 0
-318 1 -327 21 -355 19 -25 28 -28 73 -27 107 3 309 130 416 260 57 71 78 110
125 242 41 111 83 187 141 254 l36 43 12 -53 c57 -270 -87 -561 -370 -748 -55
-36 -107 -77 -116 -91 -23 -34 -19 -89 9 -155 61 -144 288 -552 374 -674 153
-216 300 -230 379 -37 29 72 46 146 115 499 164 839 285 1300 375 1429 96 139
209 125 269 -33 68 -180 114 -409 231 -1142 15 -91 51 -307 81 -481 82 -477
84 -534 27 -579 -58 -45 -132 -7 -158 83 -8 29 -33 165 -55 302 -53 328 -47
303 -83 322 -27 14 -55 15 -202 9 -221 -9 -303 -19 -325 -43 -11 -11 -26 -62
-40 -128 -64 -330 -130 -467 -258 -543 -41 -23 -58 -27 -127 -27 -69 0 -88 4
-140 30 -148 74 -286 276 -580 844 -98 189 -126 223 -169 203 -14 -6 -33 -26
-43 -44 -17 -31 -18 -85 -24 -728 -5 -610 -8 -702 -23 -755 -20 -70 -49 -105
-86 -105 -30 0 -48 17 -76 70 -18 33 -19 64 -19 470 0 239 6 640 14 890 8 250
14 658 14 906 -1 322 2 458 11 475 17 34 59 55 171 84 155 39 283 51 405 35z
m-23 -244 c82 -22 116 -49 153 -118 18 -35 37 -65 41 -68 12 -8 -36 -184 -68
-249 -33 -69 -147 -189 -232 -245 -70 -46 -181 -100 -189 -91 -17 16 -24 249
-15 464 11 272 16 289 88 313 36 11 169 8 222 -6z"/>
<path d="M19976 8278 c-22 -31 -38 -88 -86 -313 -23 -104 -53 -242 -66 -305
-14 -63 -39 -187 -55 -275 -44 -237 -40 -241 204 -232 233 9 261 23 259 129
-3 160 -121 932 -150 982 -24 42 -82 49 -106 14z m73 -198 c6 -47 34 -248 62
-448 28 -200 48 -370 45 -377 -5 -13 -34 -16 -248 -30 -42 -3 -79 -1 -82 3 -7
11 178 923 191 945 11 18 21 -11 32 -93z"/>
<path d="M16514 10046 l-28 -23 2 -144 c1 -79 5 -175 8 -214 5 -67 -10 -417
-23 -517 -5 -46 -7 -47 -32 -40 -14 4 -55 7 -91 6 -50 0 -77 -6 -118 -27 -98
-51 -171 -147 -172 -226 l0 -34 -50 6 c-86 10 -165 57 -287 169 -169 156 -252
200 -376 200 -117 0 -211 -63 -273 -184 l-23 -46 -47 14 c-107 32 -188 -26
-333 -237 -90 -131 -367 -582 -541 -879 -41 -69 -80 -132 -88 -140 -12 -13
-13 41 -7 391 7 391 7 407 -12 450 -27 58 -62 89 -111 96 -87 12 -159 -42
-187 -141 -25 -86 -35 -448 -42 -1456 -7 -1251 1 -1354 115 -1418 76 -43 167
-19 209 53 42 75 46 167 28 592 -24 558 -14 932 26 907 5 -3 33 -51 61 -107
66 -132 285 -518 356 -627 75 -114 183 -222 258 -257 47 -22 77 -28 147 -31
78 -4 93 -1 141 22 60 29 134 103 165 164 45 87 86 231 126 432 9 47 20 89 24
93 14 15 395 41 429 30 6 -3 12 -14 12 -25 0 -26 68 -470 81 -526 21 -94 66
-154 137 -182 44 -17 114 -8 156 21 86 59 88 153 11 614 -30 182 -55 333 -55
338 0 4 9 7 20 7 37 0 148 47 197 83 l50 37 7 -118 c7 -138 27 -266 56 -372
89 -318 295 -560 530 -622 83 -21 253 -23 338 -3 154 37 282 138 351 278 86
175 104 355 66 643 l-7 51 43 6 c117 15 170 134 103 229 -46 65 -105 90 -233
95 -160 8 -508 -48 -574 -92 -14 -9 -36 -37 -48 -61 -34 -71 -15 -136 55 -188
31 -24 122 -28 253 -13 98 12 98 11 98 -208 0 -150 -3 -179 -23 -243 -28 -90
-82 -150 -157 -175 -133 -46 -262 11 -355 155 -41 62 -100 229 -125 352 -62
306 5 806 145 1086 94 187 216 293 337 294 62 0 97 -21 127 -80 18 -33 22 -63
26 -199 6 -177 12 -198 73 -236 46 -29 123 -22 171 15 54 40 77 94 89 209 9
83 9 115 -6 200 -47 280 -220 419 -502 404 -181 -9 -304 -66 -446 -207 -122
-122 -201 -259 -281 -489 -49 -142 -89 -332 -104 -494 -5 -67 -11 -85 -38
-120 -45 -59 -105 -101 -177 -126 -34 -11 -64 -19 -67 -16 -2 2 -31 161 -63
352 -96 574 -155 836 -215 954 -66 131 -179 173 -292 109 -98 -57 -154 -163
-237 -448 -60 -208 -119 -445 -160 -647 -15 -71 -48 -233 -75 -360 -27 -126
-63 -302 -81 -390 -39 -201 -62 -265 -94 -265 -37 0 -131 111 -221 260 -170
282 -334 606 -341 673 -6 52 -1 63 135 288 176 291 232 379 413 655 98 149
187 291 198 316 10 25 24 76 30 113 13 89 51 165 106 213 111 98 238 77 398
-64 211 -187 269 -223 392 -246 62 -11 75 -18 112 -55 62 -65 119 -85 223 -81
70 2 95 8 141 32 70 35 141 104 170 164 27 56 38 200 38 535 l1 227 58 -39
c31 -22 100 -59 153 -84 113 -52 136 -77 145 -157 8 -70 15 -84 42 -76 24 8
29 20 48 116 29 152 11 266 -56 350 -17 22 -70 65 -118 96 -48 31 -111 73
-140 92 -32 21 -72 61 -99 100 -66 92 -142 118 -199 68z m92 -100 c3 -14 -2
-55 -11 -93 -15 -60 -15 -74 -3 -104 21 -53 9 -829 -14 -880 -52 -118 -216
-204 -323 -169 -44 14 -103 64 -116 97 -5 14 -4 43 2 74 20 92 122 168 225
169 69 0 82 -15 65 -78 -17 -65 -54 -118 -98 -141 -32 -17 -34 -20 -15 -21 88
-1 195 128 222 269 18 98 32 426 28 673 -4 234 -3 246 14 237 10 -5 20 -20 24
-33z m90 -83 c22 -21 89 -67 148 -103 126 -76 175 -125 205 -204 37 -99 35
-100 -80 -49 -223 98 -296 174 -308 321 -4 39 -6 72 -5 72 0 0 19 -17 40 -37z
m-1698 -959 c56 -39 21 -115 -205 -455 -304 -456 -533 -842 -549 -925 -11 -58
8 -112 108 -309 271 -535 428 -745 556 -745 78 0 97 56 212 630 174 876 296
1326 386 1433 70 83 146 102 199 50 84 -84 130 -271 269 -1083 20 -113 38
-220 42 -237 l7 -33 -101 0 -101 0 -5 58 c-31 309 -119 898 -145 964 -26 68
-94 69 -126 2 -39 -83 -201 -821 -212 -970 -5 -68 -5 -72 25 -105 l30 -34 324
0 323 0 3 -30 c2 -17 23 -147 47 -290 50 -299 70 -455 61 -488 -3 -13 -15 -36
-27 -50 -41 -53 -134 -26 -164 47 -16 37 -57 271 -80 446 -30 232 -23 226
-258 216 -234 -9 -315 -20 -337 -42 -12 -12 -28 -67 -45 -154 -73 -365 -152
-511 -291 -540 -72 -15 -120 -6 -191 36 -128 77 -179 147 -410 559 -50 88
-120 217 -157 287 -37 70 -77 134 -89 143 -51 35 -91 7 -124 -88 -16 -47 -18
-90 -18 -417 0 -201 2 -498 5 -660 5 -302 1 -347 -34 -393 -17 -23 -82 -26
-101 -5 -7 7 -20 38 -29 68 -34 115 -39 313 -33 1350 7 1122 16 1352 56 1409
37 51 90 55 124 9 18 -24 20 -43 21 -170 1 -79 -3 -255 -8 -393 -9 -270 -4
-321 37 -350 12 -8 30 -15 41 -15 28 0 84 64 147 171 31 52 87 144 124 204 37
61 113 187 168 280 113 194 307 489 363 554 33 39 100 80 129 81 6 0 21 -7 33
-16z m2412 -309 c101 -41 183 -131 215 -238 23 -77 30 -222 15 -302 -21 -112
-91 -165 -146 -110 -26 26 -27 29 -21 113 15 210 -43 354 -158 392 -55 18
-161 9 -220 -19 -79 -38 -191 -159 -247 -266 -196 -377 -247 -980 -118 -1368
44 -130 86 -203 157 -275 87 -88 151 -116 263 -116 99 0 153 20 221 81 89 80
136 254 126 468 -7 152 -26 219 -69 241 -29 15 -45 15 -150 4 -158 -16 -208
-2 -208 62 0 45 29 64 131 87 256 57 450 68 539 30 59 -25 85 -63 71 -101 -13
-33 -30 -45 -76 -53 -74 -12 -83 -15 -90 -32 -3 -10 2 -92 11 -182 28 -262 2
-414 -95 -564 -53 -81 -91 -117 -162 -153 -101 -51 -250 -68 -380 -44 -228 42
-420 265 -509 592 -61 225 -71 549 -26 810 79 451 256 773 494 896 44 23 106
49 139 57 77 19 232 14 293 -10z m-1785 -485 c4 -30 29 -197 55 -370 39 -256
70 -481 70 -515 0 -3 -75 -4 -167 -3 l-168 3 2 70 c2 39 10 106 19 150 19 96
93 438 129 590 14 61 28 121 31 135 8 35 20 10 29 -60z"/>
<path d="M19114 9999 c-30 -9 -333 -283 -412 -373 -38 -43 -40 -79 -5 -84 17
-3 69 41 220 181 109 101 208 189 221 196 30 16 42 7 42 -32 0 -27 -23 -54
-176 -209 l-177 -177 18 -28 c10 -15 89 -101 174 -191 86 -89 160 -171 165
-182 14 -31 -15 -57 -48 -44 -13 5 -107 89 -208 188 -272 262 -304 280 -513
281 -109 0 -142 -4 -205 -23 -110 -34 -238 -106 -343 -190 -132 -108 -214
-158 -303 -188 -150 -50 -288 -29 -378 58 -47 45 -51 47 -68 31 -39 -35 -12
-87 73 -136 102 -59 227 -72 361 -38 102 26 174 64 293 155 143 110 201 149
274 185 178 90 404 95 527 11 22 -16 124 -108 225 -206 101 -97 198 -185 214
-195 17 -11 48 -19 73 -19 35 0 49 6 73 29 25 25 29 37 29 81 0 67 -10 81
-186 260 l-143 145 150 153 c196 199 207 219 175 297 -23 54 -82 81 -142 64z"/>
<path d="M20014 9991 c-38 -17 -74 -66 -74 -101 0 -31 46 -89 191 -240 l158
-165 -159 -160 c-87 -88 -163 -173 -169 -188 -21 -55 -14 -96 23 -133 28 -28
41 -34 78 -34 24 0 54 8 69 18 63 41 411 378 439 424 43 71 14 158 -81 242
-24 22 -106 98 -183 170 -201 189 -220 200 -292 167z m82 -83 c64 -49 412
-389 417 -408 3 -12 -5 -34 -22 -57 -25 -34 -280 -282 -373 -362 -40 -34 -64
-37 -82 -9 -13 22 -11 25 192 237 136 142 161 174 153 189 -5 9 -86 96 -180
191 -170 173 -189 199 -159 229 16 16 21 15 54 -10z"/>
<path d="M24341 9873 c-12 -24 -32 -129 -86 -453 -53 -321 -63 -370 -76 -370
-8 0 -282 157 -467 267 -34 20 -38 21 -54 6 -21 -19 -22 -30 -5 -63 99 -187
224 -412 244 -438 17 -23 32 -32 46 -30 43 6 31 46 -62 216 -56 103 -83 161
-73 157 9 -3 82 -44 162 -90 186 -108 209 -117 241 -102 13 7 32 29 42 50 20
40 93 413 104 529 3 38 9 70 12 73 4 2 15 -44 25 -103 31 -192 87 -466 101
-499 16 -38 53 -58 89 -49 32 8 217 132 396 264 74 55 137 98 139 96 4 -4 -18
-37 -214 -319 -142 -205 -153 -227 -130 -262 9 -13 33 -32 53 -40 50 -21 266
-75 435 -109 75 -15 136 -29 134 -30 -2 -2 -118 -22 -258 -45 -293 -46 -317
-52 -353 -80 -47 -37 -38 -79 60 -262 47 -89 90 -166 95 -171 5 -6 9 -16 9
-22 0 -7 -75 34 -167 92 -93 57 -183 107 -201 110 -39 8 -78 -15 -93 -54 -12
-29 -79 -373 -100 -509 -7 -46 -15 -83 -19 -83 -4 0 -12 39 -19 88 -17 122
-79 460 -92 500 -14 42 -45 60 -67 39 -14 -14 -10 -45 37 -309 62 -343 100
-546 107 -571 4 -14 14 -17 37 -15 37 4 31 -20 102 383 54 310 81 444 88 451
8 8 80 -31 242 -134 209 -132 260 -158 280 -142 8 7 15 19 15 28 0 8 -59 125
-131 259 -72 133 -129 249 -126 257 6 16 26 20 337 71 274 45 418 72 448 85
24 10 29 41 10 58 -7 6 -89 27 -183 46 -430 92 -605 133 -605 142 0 3 57 90
128 192 166 243 317 473 325 494 8 23 -15 51 -41 46 -12 -1 -121 -73 -242
-158 -461 -323 -444 -312 -456 -296 -6 8 -19 61 -29 118 -10 57 -42 231 -71
387 -30 156 -54 285 -54 287 0 1 -7 10 -16 18 -20 21 -41 20 -53 -1z"/>
<path d="M22795 9076 c-182 -39 -243 -54 -550 -136 -367 -98 -1103 -268 -1426
-330 -101 -19 -181 -40 -205 -53 -47 -27 -74 -76 -74 -137 0 -62 28 -110 81
-138 39 -21 53 -23 129 -19 47 3 145 19 218 36 73 17 142 31 153 31 18 0 19
-8 19 -117 0 -65 -7 -260 -15 -433 -31 -669 -39 -1030 -27 -1171 14 -175 39
-301 66 -341 75 -112 224 -103 285 17 24 46 26 58 25 190 0 77 -6 228 -12 335
-16 259 -15 529 3 965 22 563 25 605 44 624 16 16 531 150 640 167 l44 7 -6
-219 c-4 -120 -11 -304 -17 -409 -20 -381 -39 -982 -34 -1075 17 -334 58 -497
147 -596 60 -67 131 -96 229 -96 121 0 248 77 346 211 61 81 131 210 152 276
20 64 27 61 34 -12 11 -103 44 -231 79 -296 95 -181 254 -201 797 -102 259 47
302 60 352 104 37 33 41 42 46 93 5 69 -17 113 -76 146 -53 30 -105 28 -337
-8 -104 -16 -240 -34 -302 -41 -122 -13 -144 -8 -177 44 -30 46 -49 203 -50
422 -1 185 1 214 16 238 22 33 54 41 243 62 181 19 215 28 256 62 86 73 76
199 -21 250 -52 28 -103 29 -297 8 -174 -20 -183 -18 -184 38 -3 182 24 541
45 607 8 27 19 38 46 46 19 7 169 24 332 38 313 28 378 41 427 82 43 36 66
103 52 147 -14 41 -54 81 -101 100 -49 21 -170 38 -222 32 -23 -3 -171 -19
-328 -36 -440 -46 -496 -68 -535 -202 -15 -53 -49 -444 -60 -687 -3 -74 -8
-153 -10 -175 -2 -22 -7 -177 -10 -345 -6 -244 -11 -321 -26 -386 -47 -209
-152 -383 -266 -443 -31 -16 -95 -14 -121 5 -12 8 -28 27 -36 42 -65 126 -100
756 -77 1372 16 403 37 728 50 762 12 33 27 38 271 87 298 61 369 92 410 175
35 74 8 146 -73 188 -70 36 -173 34 -362 -6z m332 -72 c40 -30 42 -72 6 -105
-42 -39 -95 -55 -319 -100 -280 -55 -311 -67 -340 -135 -25 -59 -55 -721 -55
-1214 -1 -414 24 -771 63 -928 25 -100 114 -170 204 -159 24 2 44 1 44 -3 0
-17 -86 -70 -147 -91 -91 -30 -168 -14 -236 50 -81 74 -122 257 -133 586 -6
172 4 450 41 1185 25 476 21 523 -44 550 -29 12 -58 7 -339 -59 -380 -90 -409
-101 -439 -161 -20 -41 -24 -75 -38 -345 -25 -466 -31 -991 -14 -1266 18 -303
17 -444 -4 -484 -33 -64 -106 -73 -143 -18 -69 102 -74 419 -28 1533 21 500
17 547 -48 569 -28 10 -29 10 -270 -43 -177 -39 -237 -33 -266 28 -18 37 -1
80 41 99 18 9 95 27 172 42 333 62 898 192 1425 327 610 157 662 168 757 165
65 -2 87 -6 110 -23z m1018 -377 c22 -8 48 -26 59 -40 16 -22 18 -30 8 -52
-25 -55 -98 -70 -482 -100 -235 -18 -291 -29 -330 -62 -54 -45 -76 -177 -87
-523 -9 -299 -4 -306 197 -296 63 3 158 8 210 12 88 6 97 5 123 -16 30 -24 35
-55 11 -88 -25 -36 -46 -42 -243 -67 -298 -37 -309 -48 -318 -314 -5 -154 13
-384 37 -472 14 -52 49 -100 90 -123 51 -31 169 -26 447 18 272 42 324 45 354
15 31 -31 23 -87 -18 -115 -63 -42 -561 -127 -754 -128 -98 -1 -109 1 -164 29
-50 26 -63 39 -92 92 -73 132 -99 391 -90 878 10 488 51 1121 78 1192 15 42
58 82 99 93 19 5 136 21 260 36 124 14 272 32 330 40 117 14 217 11 275 -9z"/>
<path d="M12829 8671 c-169 -93 -278 -441 -539 -1727 -28 -137 -69 -325 -91
-419 -29 -119 -40 -183 -36 -214 16 -143 205 -180 288 -55 42 63 64 135 114
379 26 127 51 238 56 247 6 10 26 19 52 22 83 11 359 27 377 21 13 -4 20 -25
29 -98 27 -203 73 -462 92 -512 22 -58 80 -120 124 -131 44 -11 121 2 154 25
93 67 90 145 -29 806 -16 88 -51 306 -79 485 -28 179 -58 359 -66 400 -107
544 -152 684 -239 754 -32 26 -47 31 -104 33 -51 3 -75 -1 -103 -16z m177
-105 c47 -54 107 -250 159 -516 14 -74 82 -470 151 -880 137 -817 140 -843 90
-887 -55 -47 -135 -20 -164 58 -14 36 -37 161 -72 397 -31 211 -38 235 -70
252 -24 13 -157 13 -334 -1 -156 -11 -201 -21 -211 -47 -3 -9 -22 -92 -41
-184 -42 -205 -89 -389 -109 -427 -33 -65 -104 -91 -139 -52 -27 29 -22 87 24
286 22 99 65 299 95 445 162 798 286 1284 371 1452 31 61 90 127 128 143 41
17 84 3 122 -39z"/>
<path d="M12852 8288 c-39 -50 -83 -218 -166 -643 -74 -375 -80 -418 -65 -447
23 -42 39 -47 156 -48 141 0 261 16 293 39 38 27 36 89 -9 428 -60 439 -95
640 -116 663 -20 23 -77 27 -93 8z m71 -258 c14 -85 29 -182 32 -215 4 -33 22
-166 41 -295 19 -129 34 -244 34 -256 0 -24 -11 -25 -239 -40 l-104 -7 7 49
c11 77 122 627 156 770 33 140 38 159 44 153 3 -2 16 -74 29 -159z"/>
</g>
</svg>
